<?xml version="1.0" encoding="UTF-8"?>
<svg xmlns="http://www.w3.org/2000/svg" viewBox="0 0 840 660"
     width="840" height="660"
     font-family="Segoe UI, -apple-system, sans-serif">
  <defs>
    <style>
      .group-box { fill: AzureColor.LIGHT_GRAY; stroke: #D0D0D0; stroke-width: 1.5; rx: 8; }
      .group-label { font-size: 13px; font-weight: 600; fill: AzureColor.DARK_BLUE; }
      .node-label { font-size: 11px; fill: #333; text-anchor: middle; }
      .node-sublabel { font-size: 9px; fill: #777; text-anchor: middle; }
      .edge { stroke: #999; stroke-width: 1.2; fill: none; }
      .edge-dashed { stroke-dasharray: 6 3; }
      .edge-label { font-size: 9px; fill: #666; text-anchor: middle; }
      .title { font-size: 18px; font-weight: 700; fill: #0078D4; }
      .subtitle { font-size: 12px; fill: #555; }
      .icon-bg { rx: 6; ry: 6; }
    </style>
    <filter id="shadow" x="-10%" y="-10%" width="120%" height="130%">
      <feDropShadow dx="1" dy="2" stdDeviation="2" flood-opacity="0.12"/>
    </filter>
  </defs>
  <defs>
    <marker id="arrow" viewBox="0 0 10 10" refX="9" refY="5"
            markerWidth="6" markerHeight="6" orient="auto-start-reverse">
      <path d="M 0 0 L 10 5 L 0 10 z" fill="#999"/>
    </marker>
  </defs>
  <text x="20" y="30" class="title">Platform Management Landing Zone — As-Built</text>
  <text x="20" y="48" class="subtitle">alz-platform-management  ·  southcentralus  ·  Log retention: 365 days</text>
  <!-- Group: Subscription: alz-platform-management -->
    <rect x="10" y="70" width="780" height="460"
          rx="8" fill="AzureColor.BLUE" fill-opacity="0.06"
          stroke="AzureColor.BLUE" stroke-width="1.5" stroke-dasharray="6 3"/>
    <g transform="translate(18,76) scale(0.625)">
      <rect width="32" height="32" class="icon-bg" fill="AzureColor.BLUE" opacity="0.12"/>
      <path d="M16 2L4 8v16l12 6 12-6V8L16 2zm0 3.2L25 9.6v12.8L16 26.8 7 22.4V9.6L16 5.2z" fill="AzureColor.BLUE"/>
    </g>
    <text x="46" y="90" class="group-label" fill="AzureColor.BLUE">Subscription: alz-platform-management</text>
  <!-- Group: Monitoring &amp; Analytics -->
    <rect x="30" y="110" width="740" height="140"
          rx="8" fill="AzureColor.ORANGE" fill-opacity="0.06"
          stroke="AzureColor.ORANGE" stroke-width="1.5" stroke-dasharray="6 3"/>
    <g transform="translate(38,116) scale(0.625)">
      <rect width="32" height="32" class="icon-bg" fill="AzureColor.ORANGE" opacity="0.12"/>
      <path d="M4 4h24v18H4V4zm2 2v14h20V6H6zm4 10h2v2h-2zm4-4h2v6h-2zm4-2h2v8h-2zm4-4h2v12h-2z" fill="AzureColor.ORANGE"/>
    </g>
    <text x="66" y="130" class="group-label" fill="AzureColor.ORANGE">Monitoring &amp; Analytics</text>
  <!-- Group: Operations &amp; Continuity -->
    <rect x="30" y="270" width="740" height="140"
          rx="8" fill="AzureColor.TEAL" fill-opacity="0.06"
          stroke="AzureColor.TEAL" stroke-width="1.5" stroke-dasharray="6 3"/>
    <g transform="translate(38,276) scale(0.625)">
      <rect width="32" height="32" class="icon-bg" fill="AzureColor.TEAL" opacity="0.12"/>
      <path d="M16 2L4 8v16l12 6 12-6V8L16 2zm-4 18l-3-3 1.4-1.4L12 17.2l5.6-5.6L19 13l-7 7z" fill="AzureColor.TEAL"/>
    </g>
    <text x="66" y="290" class="group-label" fill="AzureColor.TEAL">Operations &amp; Continuity</text>
  <!-- Group: Governance -->
    <rect x="30" y="430" width="740" height="90"
          rx="8" fill="AzureColor.TEAL" fill-opacity="0.06"
          stroke="AzureColor.TEAL" stroke-width="1.5" stroke-dasharray="6 3"/>
    <g transform="translate(38,436) scale(0.625)">
      <rect width="32" height="32" class="icon-bg" fill="AzureColor.TEAL" opacity="0.12"/>
      <path d="M16 2L4 7v9c0 7.46 5.12 14.43 12 16 6.88-1.57 12-8.54 12-16V7L16 2zm0 4l8 3.4v6.6c0 5.34-3.42 10.33-8 11.8-4.58-1.47-8-6.46-8-11.8V9.4L16 6z" fill="AzureColor.TEAL"/>
    </g>
    <text x="66" y="450" class="group-label" fill="AzureColor.TEAL">Governance</text>
  <!-- Log Analytics -->
    <g filter="url(#shadow)">
      <rect x="50" y="140" width="130" height="90"
            rx="8" fill="white" stroke="#E0E0E0" stroke-width="1"/>
      <g transform="translate(97.0,148) scale(1.125)">
      <rect width="32" height="32" class="icon-bg" fill="AzureColor.ORANGE" opacity="0.12"/>
      <path d="M4 4h24v24H4V4zm2 2v20h20V6H6zm4 14l4-6 3 4 5-8v12H10v-2z" fill="AzureColor.ORANGE"/>
    </g>
      <text x="115.0" y="196" class="node-label">Log Analytics</text>
      <text x="115.0" y="210" class="node-sublabel">365d retention</text>
    </g>
  <!-- Microsoft Sentinel -->
    <g filter="url(#shadow)">
      <rect x="200" y="140" width="130" height="90"
            rx="8" fill="white" stroke="#E0E0E0" stroke-width="1"/>
      <g transform="translate(247.0,148) scale(1.125)">
      <rect width="32" height="32" class="icon-bg" fill="#0078D4" opacity="0.12"/>
      <path d="M16 2C8.27 2 2 8.27 2 16s6.27 14 14 14 14-6.27 14-14S23.73 2 16 2zm0 4c5.52 0 10 4.48 10 10s-4.48 10-10 10S6 21.52 6 16 10.48 6 16 6zm0 4a6 6 0 100 12 6 6 0 000-12zm0 2a4 4 0 110 8 4 4 0 010-8z" fill="#0078D4"/>
    </g>
      <text x="265.0" y="196" class="node-label">Microsoft Sentinel</text>
      <text x="265.0" y="210" class="node-sublabel">SIEM + SOAR</text>
    </g>
  <!-- Azure Monitor -->
    <g filter="url(#shadow)">
      <rect x="350" y="140" width="130" height="90"
            rx="8" fill="white" stroke="#E0E0E0" stroke-width="1"/>
      <g transform="translate(397.0,148) scale(1.125)">
      <rect width="32" height="32" class="icon-bg" fill="AzureColor.ORANGE" opacity="0.12"/>
      <path d="M4 4h24v18H4V4zm2 2v14h20V6H6zm4 10h2v2h-2zm4-4h2v6h-2zm4-2h2v8h-2zm4-4h2v12h-2z" fill="AzureColor.ORANGE"/>
    </g>
      <text x="415.0" y="196" class="node-label">Azure Monitor</text>
      <text x="415.0" y="210" class="node-sublabel">Alerts &amp; Metrics</text>
    </g>
  <!-- Action Groups -->
    <g filter="url(#shadow)">
      <rect x="500" y="140" width="130" height="90"
            rx="8" fill="white" stroke="#E0E0E0" stroke-width="1"/>
      <g transform="translate(547.0,148) scale(1.125)">
      <rect width="32" height="32" class="icon-bg" fill="AzureColor.TEAL" opacity="0.12"/>
      <path d="M16 2L4 8v16l12 6 12-6V8L16 2zm-4 18l-3-3 1.4-1.4L12 17.2l5.6-5.6L19 13l-7 7z" fill="AzureColor.TEAL"/>
    </g>
      <text x="565.0" y="196" class="node-label">Action Groups</text>
      <text x="565.0" y="210" class="node-sublabel">Email / Teams / SMS</text>
    </g>
  <!-- Automation Acct -->
    <g filter="url(#shadow)">
      <rect x="50" y="300" width="130" height="90"
            rx="8" fill="white" stroke="#E0E0E0" stroke-width="1"/>
      <g transform="translate(97.0,308) scale(1.125)">
      <rect width="32" height="32" class="icon-bg" fill="AzureColor.TEAL" opacity="0.12"/>
      <path d="M16 2L4 8v16l12 6 12-6V8L16 2zm-4 18l-3-3 1.4-1.4L12 17.2l5.6-5.6L19 13l-7 7z" fill="AzureColor.TEAL"/>
    </g>
      <text x="115.0" y="356" class="node-label">Automation Acct</text>
      <text x="115.0" y="370" class="node-sublabel">Runbooks</text>
    </g>
  <!-- Update Manager -->
    <g filter="url(#shadow)">
      <rect x="200" y="300" width="130" height="90"
            rx="8" fill="white" stroke="#E0E0E0" stroke-width="1"/>
      <g transform="translate(247.0,308) scale(1.125)">
      <rect width="32" height="32" class="icon-bg" fill="AzureColor.TEAL" opacity="0.12"/>
      <path d="M16 2L4 8v16l12 6 12-6V8L16 2zm-4 18l-3-3 1.4-1.4L12 17.2l5.6-5.6L19 13l-7 7z" fill="AzureColor.TEAL"/>
    </g>
      <text x="265.0" y="356" class="node-label">Update Manager</text>
      <text x="265.0" y="370" class="node-sublabel">Weekly patches</text>
    </g>
  <!-- Change Tracking -->
    <g filter="url(#shadow)">
      <rect x="350" y="300" width="130" height="90"
            rx="8" fill="white" stroke="#E0E0E0" stroke-width="1"/>
      <g transform="translate(397.0,308) scale(1.125)">
      <rect width="32" height="32" class="icon-bg" fill="AzureColor.ORANGE" opacity="0.12"/>
      <path d="M4 4h24v18H4V4zm2 2v14h20V6H6zm4 10h2v2h-2zm4-4h2v6h-2zm4-2h2v8h-2zm4-4h2v12h-2z" fill="AzureColor.ORANGE"/>
    </g>
      <text x="415.0" y="356" class="node-label">Change Tracking</text>
      <text x="415.0" y="370" class="node-sublabel">File &amp; service</text>
    </g>
  <!-- Recovery Vault -->
    <g filter="url(#shadow)">
      <rect x="500" y="300" width="130" height="90"
            rx="8" fill="white" stroke="#E0E0E0" stroke-width="1"/>
      <g transform="translate(547.0,308) scale(1.125)">
      <rect width="32" height="32" class="icon-bg" fill="AzureColor.TEAL" opacity="0.12"/>
      <path d="M16 2c-7.73 0-14 6.27-14 14s6.27 14 14 14 14-6.27 14-14S23.73 2 16 2zm0 24c-5.52 0-10-4.48-10-10S10.48 6 16 6s10 4.48 10 10-4.48 10-10 10zm-1-15h2v6h-2zm0 8h2v2h-2z" fill="AzureColor.TEAL"/>
    </g>
      <text x="565.0" y="356" class="node-label">Recovery Vault</text>
      <text x="565.0" y="370" class="node-sublabel">Daily + Weekly</text>
    </g>
  <!-- Azure Policy -->
    <g filter="url(#shadow)">
      <rect x="50" y="445" width="130" height="60"
            rx="8" fill="white" stroke="#E0E0E0" stroke-width="1"/>
      <g transform="translate(97.0,453) scale(1.125)">
      <rect width="32" height="32" class="icon-bg" fill="AzureColor.TEAL" opacity="0.12"/>
      <path d="M16 2L4 7v9c0 7.46 5.12 14.43 12 16 6.88-1.57 12-8.54 12-16V7L16 2zm0 4l8 3.4v6.6c0 5.34-3.42 10.33-8 11.8-4.58-1.47-8-6.46-8-11.8V9.4L16 6z" fill="AzureColor.TEAL"/>
    </g>
      <text x="115.0" y="501" class="node-label">Azure Policy</text>
      <text x="115.0" y="515" class="node-sublabel">Baseline policies</text>
    </g>
  <!-- Defender for Cloud -->
    <g filter="url(#shadow)">
      <rect x="200" y="445" width="130" height="60"
            rx="8" fill="white" stroke="#E0E0E0" stroke-width="1"/>
      <g transform="translate(247.0,453) scale(1.125)">
      <rect width="32" height="32" class="icon-bg" fill="AzureColor.PURPLE" opacity="0.12"/>
      <path d="M16 2L4 7v9c0 7.46 5.12 14.43 12 16 6.88-1.57 12-8.54 12-16V7L16 2zm-2 20l-5-5 1.41-1.41L14 19.17l7.59-7.59L23 13l-9 9z" fill="AzureColor.PURPLE"/>
    </g>
      <text x="265.0" y="501" class="node-label">Defender for Cloud</text>
      <text x="265.0" y="515" class="node-sublabel">All plans enabled</text>
    </g>
  <!-- Cost Management -->
    <g filter="url(#shadow)">
      <rect x="350" y="445" width="130" height="60"
            rx="8" fill="white" stroke="#E0E0E0" stroke-width="1"/>
      <g transform="translate(397.0,453) scale(1.125)">
      <rect width="32" height="32" class="icon-bg" fill="AzureColor.TEAL" opacity="0.12"/>
      <path d="M16 2C8.27 2 2 8.27 2 16s6.27 14 14 14 14-6.27 14-14S23.73 2 16 2zm1 21h-2v-2h2v2zm0-4h-2V9h2v10z" fill="AzureColor.TEAL"/>
    </g>
      <text x="415.0" y="501" class="node-label">Cost Management</text>
      <text x="415.0" y="515" class="node-sublabel">Budget alerts</text>
    </g>
    <path d="M115.0,230 C115.0,185.0 265.0,185.0 265.0,140"
          stroke="AzureColor.ORANGE" stroke-width="1.2" fill="none"
          marker-end="url(#arrow)"/>
    <text x="190.0" y="179.0" class="edge-label">feeds</text>    <path d="M265.0,230 C265.0,185.0 415.0,185.0 415.0,140"
          stroke="AzureColor.ORANGE" stroke-width="1.2" fill="none"
          marker-end="url(#arrow)"/>
    <text x="340.0" y="179.0" class="edge-label">alerts</text>    <path d="M415.0,230 C415.0,185.0 565.0,185.0 565.0,140"
          stroke="AzureColor.ORANGE" stroke-width="1.2" fill="none"
          marker-end="url(#arrow)"/>
    <text x="490.0" y="179.0" class="edge-label">notify</text>    <path d="M115.0,390 C115.0,345.0 265.0,345.0 265.0,300"
          stroke="AzureColor.TEAL" stroke-width="1.2" fill="none"
          marker-end="url(#arrow)"/>
    <text x="190.0" y="339.0" class="edge-label">schedules</text>    <path d="M265.0,390 C265.0,345.0 415.0,345.0 415.0,300"
          stroke="AzureColor.TEAL" stroke-width="1.2" fill="none"
          marker-end="url(#arrow)"/>
    <text x="340.0" y="339.0" class="edge-label">tracks</text></svg>