<?xml version="1.0" encoding="UTF-8"?>
<svg xmlns="http://www.w3.org/2000/svg" viewBox="0 0 840 660"
     width="840" height="660"
     font-family="Segoe UI, -apple-system, sans-serif">
  <defs>
    <style>
      .group-box { fill: AzureColor.LIGHT_GRAY; stroke: #D0D0D0; stroke-width: 1.5; rx: 8; }
      .group-label { font-size: 13px; font-weight: 600; fill: AzureColor.DARK_BLUE; }
      .node-label { font-size: 11px; fill: #333; text-anchor: middle; }
      .node-sublabel { font-size: 9px; fill: #777; text-anchor: middle; }
      .edge { stroke: #999; stroke-width: 1.2; fill: none; }
      .edge-dashed { stroke-dasharray: 6 3; }
      .edge-label { font-size: 9px; fill: #666; text-anchor: middle; }
      .title { font-size: 18px; font-weight: 700; fill: #0078D4; }
      .subtitle { font-size: 12px; fill: #555; }
      .icon-bg { rx: 6; ry: 6; }
    </style>
    <filter id="shadow" x="-10%" y="-10%" width="120%" height="130%">
      <feDropShadow dx="1" dy="2" stdDeviation="2" flood-opacity="0.12"/>
    </filter>
  </defs>
  <defs>
    <marker id="arrow" viewBox="0 0 10 10" refX="9" refY="5"
            markerWidth="6" markerHeight="6" orient="auto-start-reverse">
      <path d="M 0 0 L 10 5 L 0 10 z" fill="#999"/>
    </marker>
  </defs>
  <text x="20" y="30" class="title">Platform Identity Landing Zone — As-Built</text>
  <text x="20" y="48" class="subtitle">alz-platform-identity  ·  southcentralus</text>
  <!-- Group: Subscription: alz-platform-identity -->
    <rect x="10" y="70" width="640" height="380"
          rx="8" fill="AzureColor.PURPLE" fill-opacity="0.06"
          stroke="AzureColor.PURPLE" stroke-width="1.5" stroke-dasharray="6 3"/>
    <g transform="translate(18,76) scale(0.625)">
      <rect width="32" height="32" class="icon-bg" fill="AzureColor.BLUE" opacity="0.12"/>
      <path d="M16 2L4 8v16l12 6 12-6V8L16 2zm0 3.2L25 9.6v12.8L16 26.8 7 22.4V9.6L16 5.2z" fill="AzureColor.BLUE"/>
    </g>
    <text x="46" y="90" class="group-label" fill="AzureColor.PURPLE">Subscription: alz-platform-identity</text>
  <!-- Group: Active Directory Domain Services -->
    <rect x="30" y="110" width="600" height="140"
          rx="8" fill="AzureColor.PURPLE" fill-opacity="0.06"
          stroke="AzureColor.PURPLE" stroke-width="1.5" stroke-dasharray="6 3"/>
    <g transform="translate(38,116) scale(0.625)">
      <rect width="32" height="32" class="icon-bg" fill="AzureColor.PURPLE" opacity="0.12"/>
      <path d="M16 2C8.27 2 2 8.27 2 16s6.27 14 14 14 14-6.27 14-14S23.73 2 16 2zm0 6a4 4 0 110 8 4 4 0 010-8zm0 18c-3.31 0-6.31-1.34-8.49-3.51C9.37 19.98 12.5 18 16 18s6.63 1.98 8.49 4.49A11.952 11.952 0 0116 26z" fill="AzureColor.PURPLE"/>
    </g>
    <text x="66" y="130" class="group-label" fill="AzureColor.PURPLE">Active Directory Domain Services</text>
  <!-- Group: Privileged Access -->
    <rect x="30" y="270" width="600" height="160"
          rx="8" fill="AzureColor.PURPLE" fill-opacity="0.06"
          stroke="AzureColor.PURPLE" stroke-width="1.5" stroke-dasharray="6 3"/>
    <g transform="translate(38,276) scale(0.625)">
      <rect width="32" height="32" class="icon-bg" fill="AzureColor.PURPLE" opacity="0.12"/>
      <path d="M16 2a6 6 0 00-6 6c0 2.22 1.21 4.16 3 5.2V28h6V13.2c1.79-1.04 3-2.98 3-5.2a6 6 0 00-6-6zm0 8a2 2 0 110-4 2 2 0 010 4z" fill="AzureColor.PURPLE"/>
    </g>
    <text x="66" y="290" class="group-label" fill="AzureColor.PURPLE">Privileged Access</text>
  <!-- Domain Controller 1 -->
    <g filter="url(#shadow)">
      <rect x="50" y="140" width="130" height="90"
            rx="8" fill="white" stroke="#E0E0E0" stroke-width="1"/>
      <g transform="translate(97.0,148) scale(1.125)">
      <rect width="32" height="32" class="icon-bg" fill="AzureColor.PURPLE" opacity="0.12"/>
      <path d="M16 2C8.27 2 2 8.27 2 16s6.27 14 14 14 14-6.27 14-14S23.73 2 16 2zm0 6a4 4 0 110 8 4 4 0 010-8zm0 18c-3.31 0-6.31-1.34-8.49-3.51C9.37 19.98 12.5 18 16 18s6.63 1.98 8.49 4.49A11.952 11.952 0 0116 26z" fill="AzureColor.PURPLE"/>
    </g>
      <text x="115.0" y="196" class="node-label">Domain Controller 1</text>
      <text x="115.0" y="210" class="node-sublabel">southcentralus AZ-1</text>
    </g>
  <!-- Domain Controller 2 -->
    <g filter="url(#shadow)">
      <rect x="200" y="140" width="130" height="90"
            rx="8" fill="white" stroke="#E0E0E0" stroke-width="1"/>
      <g transform="translate(247.0,148) scale(1.125)">
      <rect width="32" height="32" class="icon-bg" fill="AzureColor.PURPLE" opacity="0.12"/>
      <path d="M16 2C8.27 2 2 8.27 2 16s6.27 14 14 14 14-6.27 14-14S23.73 2 16 2zm0 6a4 4 0 110 8 4 4 0 010-8zm0 18c-3.31 0-6.31-1.34-8.49-3.51C9.37 19.98 12.5 18 16 18s6.63 1.98 8.49 4.49A11.952 11.952 0 0116 26z" fill="AzureColor.PURPLE"/>
    </g>
      <text x="265.0" y="196" class="node-label">Domain Controller 2</text>
      <text x="265.0" y="210" class="node-sublabel">southcentralus AZ-2</text>
    </g>
  <!-- Entra Connect -->
    <g filter="url(#shadow)">
      <rect x="370" y="140" width="130" height="90"
            rx="8" fill="white" stroke="#E0E0E0" stroke-width="1"/>
      <g transform="translate(417.0,148) scale(1.125)">
      <rect width="32" height="32" class="icon-bg" fill="AzureColor.PURPLE" opacity="0.12"/>
      <path d="M16 2C8.27 2 2 8.27 2 16s6.27 14 14 14 14-6.27 14-14S23.73 2 16 2zm0 6a4 4 0 110 8 4 4 0 010-8zm0 18c-3.31 0-6.31-1.34-8.49-3.51C9.37 19.98 12.5 18 16 18s6.63 1.98 8.49 4.49A11.952 11.952 0 0116 26z" fill="AzureColor.PURPLE"/>
    </g>
      <text x="435.0" y="196" class="node-label">Entra Connect</text>
      <text x="435.0" y="210" class="node-sublabel">Hybrid sync</text>
    </g>
  <!-- PIM -->
    <g filter="url(#shadow)">
      <rect x="50" y="300" width="130" height="90"
            rx="8" fill="white" stroke="#E0E0E0" stroke-width="1"/>
      <g transform="translate(97.0,308) scale(1.125)">
      <rect width="32" height="32" class="icon-bg" fill="AzureColor.PURPLE" opacity="0.12"/>
      <path d="M16 2L4 7v9c0 7.46 5.12 14.43 12 16 6.88-1.57 12-8.54 12-16V7L16 2zm-2 20l-5-5 1.41-1.41L14 19.17l7.59-7.59L23 13l-9 9z" fill="AzureColor.PURPLE"/>
    </g>
      <text x="115.0" y="356" class="node-label">PIM</text>
      <text x="115.0" y="370" class="node-sublabel">JIT elevation</text>
    </g>
  <!-- PAW Devices -->
    <g filter="url(#shadow)">
      <rect x="200" y="300" width="130" height="90"
            rx="8" fill="white" stroke="#E0E0E0" stroke-width="1"/>
      <g transform="translate(247.0,308) scale(1.125)">
      <rect width="32" height="32" class="icon-bg" fill="AzureColor.PURPLE" opacity="0.12"/>
      <path d="M16 2L4 7v9c0 7.46 5.12 14.43 12 16 6.88-1.57 12-8.54 12-16V7L16 2zm-2 20l-5-5 1.41-1.41L14 19.17l7.59-7.59L23 13l-9 9z" fill="AzureColor.PURPLE"/>
    </g>
      <text x="265.0" y="356" class="node-label">PAW Devices</text>
      <text x="265.0" y="370" class="node-sublabel">Hardened admin</text>
    </g>
  <!-- Key Vault -->
    <g filter="url(#shadow)">
      <rect x="370" y="300" width="130" height="90"
            rx="8" fill="white" stroke="#E0E0E0" stroke-width="1"/>
      <g transform="translate(417.0,308) scale(1.125)">
      <rect width="32" height="32" class="icon-bg" fill="AzureColor.PURPLE" opacity="0.12"/>
      <path d="M16 2a6 6 0 00-6 6c0 2.22 1.21 4.16 3 5.2V28h6V13.2c1.79-1.04 3-2.98 3-5.2a6 6 0 00-6-6zm0 8a2 2 0 110-4 2 2 0 010 4z" fill="AzureColor.PURPLE"/>
    </g>
      <text x="435.0" y="356" class="node-label">Key Vault</text>
      <text x="435.0" y="370" class="node-sublabel">Secrets &amp; certs</text>
    </g>
    <path d="M115.0,230 C115.0,185.0 265.0,185.0 265.0,140"
          stroke="AzureColor.PURPLE" stroke-width="1.2" fill="none"
          marker-end="url(#arrow)"/>
    <text x="190.0" y="179.0" class="edge-label">replication</text>    <path d="M265.0,230 C265.0,185.0 435.0,185.0 435.0,140"
          stroke="AzureColor.PURPLE" stroke-width="1.2" fill="none"
          marker-end="url(#arrow)"/>
    <text x="350.0" y="179.0" class="edge-label">sync</text>    <path d="M115.0,390 C115.0,345.0 265.0,345.0 265.0,300"
          stroke="AzureColor.PURPLE" stroke-width="1.2" fill="none" class="edge-dashed"
          marker-end="url(#arrow)"/>
    <text x="190.0" y="339.0" class="edge-label">requires</text></svg>