<?xml version="1.0" encoding="UTF-8"?>
<svg xmlns="http://www.w3.org/2000/svg" viewBox="0 0 1010 660"
     width="1010" height="660"
     font-family="Segoe UI, -apple-system, sans-serif">
  <defs>
    <style>
      .group-box { fill: #F2F2F2; stroke: #D0D0D0; stroke-width: 1.5; rx: 8; }
      .group-label { font-size: 13px; font-weight: 600; fill: #003B73; }
      .node-label { font-size: 11px; fill: #333; text-anchor: middle; }
      .node-sublabel { font-size: 9px; fill: #777; text-anchor: middle; }
      .edge { stroke: #999; stroke-width: 1.2; fill: none; }
      .edge-dashed { stroke-dasharray: 6 3; }
      .edge-label { font-size: 9px; fill: #666; text-anchor: middle; }
      .title { font-size: 18px; font-weight: 700; fill: #0078D4; }
      .subtitle { font-size: 12px; fill: #555; }
      .icon-bg { rx: 6; ry: 6; }
    </style>
    <filter id="shadow" x="-10%" y="-10%" width="120%" height="130%">
      <feDropShadow dx="1" dy="2" stdDeviation="2" flood-opacity="0.12"/>
    </filter>
  </defs>
  <defs>
    <marker id="arrow" viewBox="0 0 10 10" refX="9" refY="5"
            markerWidth="6" markerHeight="6" orient="auto-start-reverse">
      <path d="M 0 0 L 10 5 L 0 10 z" fill="#999"/>
    </marker>
  </defs>
  <text x="20" y="30" class="title">Azure Landing Zone — Full Estate Overview</text>
  <text x="20" y="48" class="subtitle">Management Group Prefix: alz  ·  4 Platform + 6 Application LZs</text>
  <!-- Group: alz (Azure Landing Zones) -->
    <rect x="10" y="70" width="960" height="530"
          rx="8" fill="#003B73" fill-opacity="0.06"
          stroke="#003B73" stroke-width="1.5" stroke-dasharray="6 3"/>
    <g transform="translate(18,76) scale(0.625)">
      <rect width="32" height="32" class="icon-bg" fill="#003B73" opacity="0.12"/>
      <path d="M14 2h4v4h-4V2zM8 10h16v4H8v-4zm-6 8h10v4H2v-4zm16 0h10v4H18v-4zM16 6v4M8 14v4m16-4v4" fill="#003B73"/>
    </g>
    <text x="46" y="90" class="group-label" fill="#003B73">alz (Azure Landing Zones)</text>
  <!-- Group: Platform Landing Zones -->
    <rect x="30" y="110" width="920" height="150"
          rx="8" fill="#0078D4" fill-opacity="0.06"
          stroke="#0078D4" stroke-width="1.5" stroke-dasharray="6 3"/>
    <g transform="translate(38,116) scale(0.625)">
      <rect width="32" height="32" class="icon-bg" fill="#0078D4" opacity="0.12"/>
      <path d="M16 2L4 8v16l12 6 12-6V8L16 2zm0 3.2L25 9.6v12.8L16 26.8 7 22.4V9.6L16 5.2z" fill="#0078D4"/>
    </g>
    <text x="66" y="130" class="group-label" fill="#0078D4">Platform Landing Zones</text>
  <!-- Group: Application Landing Zones (configurable) -->
    <rect x="30" y="280" width="920" height="150"
          rx="8" fill="#107C10" fill-opacity="0.06"
          stroke="#107C10" stroke-width="1.5" stroke-dasharray="6 3"/>
    <g transform="translate(38,286) scale(0.625)">
      <rect width="32" height="32" class="icon-bg" fill="#0078D4" opacity="0.12"/>
      <path d="M16 2L4 8v16l12 6 12-6V8L16 2zm-3 10l6 4-6 4v-8z" fill="#0078D4"/>
    </g>
    <text x="66" y="300" class="group-label" fill="#107C10">Application Landing Zones (configurable)</text>
  <!-- Group: Cross-Cutting Services -->
    <rect x="30" y="450" width="920" height="130"
          rx="8" fill="#FF8C00" fill-opacity="0.06"
          stroke="#FF8C00" stroke-width="1.5" stroke-dasharray="6 3"/>
    <g transform="translate(38,456) scale(0.625)">
      <rect width="32" height="32" class="icon-bg" fill="#008272" opacity="0.12"/>
      <path d="M16 2L4 7v9c0 7.46 5.12 14.43 12 16 6.88-1.57 12-8.54 12-16V7L16 2zm0 4l8 3.4v6.6c0 5.34-3.42 10.33-8 11.8-4.58-1.47-8-6.46-8-11.8V9.4L16 6z" fill="#008272"/>
    </g>
    <text x="66" y="470" class="group-label" fill="#FF8C00">Cross-Cutting Services</text>
  <!-- Management -->
    <g filter="url(#shadow)">
      <rect x="50" y="145" width="140" height="90"
            rx="8" fill="white" stroke="#E0E0E0" stroke-width="1"/>
      <g transform="translate(102.0,153) scale(1.125)">
      <rect width="32" height="32" class="icon-bg" fill="#FF8C00" opacity="0.12"/>
      <path d="M4 4h24v24H4V4zm2 2v20h20V6H6zm4 14l4-6 3 4 5-8v12H10v-2z" fill="#FF8C00"/>
    </g>
      <text x="120.0" y="201" class="node-label">Management</text>
      <text x="120.0" y="215" class="node-sublabel">Sub 1</text>
    </g>
  <!-- Connectivity -->
    <g filter="url(#shadow)">
      <rect x="210" y="145" width="140" height="90"
            rx="8" fill="white" stroke="#E0E0E0" stroke-width="1"/>
      <g transform="translate(262.0,153) scale(1.125)">
      <rect width="32" height="32" class="icon-bg" fill="#107C10" opacity="0.12"/>
      <path d="M16 2C8.27 2 2 8.27 2 16s6.27 14 14 14 14-6.27 14-14S23.73 2 16 2zm0 26C9.37 28 4 22.63 4 16S9.37 4 16 4s12 5.37 12 12-5.37 12-12 12zm-2-18h4v4h4v4h-4v4h-4v-4H10v-4h4V10z" fill="#107C10"/>
    </g>
      <text x="280.0" y="201" class="node-label">Connectivity</text>
      <text x="280.0" y="215" class="node-sublabel">Sub 2</text>
    </g>
  <!-- Identity -->
    <g filter="url(#shadow)">
      <rect x="370" y="145" width="140" height="90"
            rx="8" fill="white" stroke="#E0E0E0" stroke-width="1"/>
      <g transform="translate(422.0,153) scale(1.125)">
      <rect width="32" height="32" class="icon-bg" fill="#5C2D91" opacity="0.12"/>
      <path d="M16 2C8.27 2 2 8.27 2 16s6.27 14 14 14 14-6.27 14-14S23.73 2 16 2zm0 6a4 4 0 110 8 4 4 0 010-8zm0 18c-3.31 0-6.31-1.34-8.49-3.51C9.37 19.98 12.5 18 16 18s6.63 1.98 8.49 4.49A11.952 11.952 0 0116 26z" fill="#5C2D91"/>
    </g>
      <text x="440.0" y="201" class="node-label">Identity</text>
      <text x="440.0" y="215" class="node-sublabel">Sub 3</text>
    </g>
  <!-- Security -->
    <g filter="url(#shadow)">
      <rect x="530" y="145" width="140" height="90"
            rx="8" fill="white" stroke="#E0E0E0" stroke-width="1"/>
      <g transform="translate(582.0,153) scale(1.125)">
      <rect width="32" height="32" class="icon-bg" fill="#0078D4" opacity="0.12"/>
      <path d="M16 2C8.27 2 2 8.27 2 16s6.27 14 14 14 14-6.27 14-14S23.73 2 16 2zm0 4c5.52 0 10 4.48 10 10s-4.48 10-10 10S6 21.52 6 16 10.48 6 16 6zm0 4a6 6 0 100 12 6 6 0 000-12zm0 2a4 4 0 110 8 4 4 0 010-8z" fill="#0078D4"/>
    </g>
      <text x="600.0" y="201" class="node-label">Security</text>
      <text x="600.0" y="215" class="node-sublabel">Sub 4</text>
    </g>
  <!-- Corp ERP -->
    <g filter="url(#shadow)">
      <rect x="50" y="315" width="130" height="90"
            rx="8" fill="white" stroke="#E0E0E0" stroke-width="1"/>
      <g transform="translate(97.0,323) scale(1.125)">
      <rect width="32" height="32" class="icon-bg" fill="#107C10" opacity="0.12"/>
      <path d="M16 2C8.27 2 2 8.27 2 16s6.27 14 14 14 14-6.27 14-14S23.73 2 16 2zm0 26C9.37 28 4 22.63 4 16S9.37 4 16 4s12 5.37 12 12-5.37 12-12 12zm-2-18h4v4h4v4h-4v4h-4v-4H10v-4h4V10z" fill="#107C10"/>
    </g>
      <text x="115.0" y="371" class="node-label">Corp ERP</text>
      <text x="115.0" y="385" class="node-sublabel">Profile: corp</text>
    </g>
  <!-- Corp CRM -->
    <g filter="url(#shadow)">
      <rect x="200" y="315" width="130" height="90"
            rx="8" fill="white" stroke="#E0E0E0" stroke-width="1"/>
      <g transform="translate(247.0,323) scale(1.125)">
      <rect width="32" height="32" class="icon-bg" fill="#107C10" opacity="0.12"/>
      <path d="M16 2C8.27 2 2 8.27 2 16s6.27 14 14 14 14-6.27 14-14S23.73 2 16 2zm0 26C9.37 28 4 22.63 4 16S9.37 4 16 4s12 5.37 12 12-5.37 12-12 12zm-2-18h4v4h4v4h-4v4h-4v-4H10v-4h4V10z" fill="#107C10"/>
    </g>
      <text x="265.0" y="371" class="node-label">Corp CRM</text>
      <text x="265.0" y="385" class="node-sublabel">Profile: corp</text>
    </g>
  <!-- Online Web Portal -->
    <g filter="url(#shadow)">
      <rect x="350" y="315" width="130" height="90"
            rx="8" fill="white" stroke="#E0E0E0" stroke-width="1"/>
      <g transform="translate(397.0,323) scale(1.125)">
      <rect width="32" height="32" class="icon-bg" fill="#D13438" opacity="0.12"/>
      <path d="M16 2L4 7v9c0 7.46 5.12 14.43 12 16 6.88-1.57 12-8.54 12-16V7L16 2zm0 6a2 2 0 110 4 2 2 0 010-4zm-1 6h2v8h-2v-8z" fill="#D13438"/>
    </g>
      <text x="415.0" y="371" class="node-label">Online Web Portal</text>
      <text x="415.0" y="385" class="node-sublabel">Profile: online</text>
    </g>
  <!-- Online API Gateway -->
    <g filter="url(#shadow)">
      <rect x="500" y="315" width="130" height="90"
            rx="8" fill="white" stroke="#E0E0E0" stroke-width="1"/>
      <g transform="translate(547.0,323) scale(1.125)">
      <rect width="32" height="32" class="icon-bg" fill="#D13438" opacity="0.12"/>
      <path d="M16 2L4 7v9c0 7.46 5.12 14.43 12 16 6.88-1.57 12-8.54 12-16V7L16 2zm0 6a2 2 0 110 4 2 2 0 010-4zm-1 6h2v8h-2v-8z" fill="#D13438"/>
    </g>
      <text x="565.0" y="371" class="node-label">Online API Gateway</text>
      <text x="565.0" y="385" class="node-sublabel">Profile: online</text>
    </g>
  <!-- SAP S/4HANA -->
    <g filter="url(#shadow)">
      <rect x="650" y="315" width="130" height="90"
            rx="8" fill="white" stroke="#E0E0E0" stroke-width="1"/>
      <g transform="translate(697.0,323) scale(1.125)">
      <rect width="32" height="32" class="icon-bg" fill="#0FAAFF" opacity="0.12"/>
      <path d="M4 6h24v20H4V6zm8 4v12h2V10h-2zm4 2v10h2V12h-2zm4-4v14h2V8h-2z" fill="#0FAAFF"/>
    </g>
      <text x="715.0" y="371" class="node-label">SAP S/4HANA</text>
      <text x="715.0" y="385" class="node-sublabel">Profile: sap</text>
    </g>
  <!-- Dev Sandbox -->
    <g filter="url(#shadow)">
      <rect x="800" y="315" width="130" height="90"
            rx="8" fill="white" stroke="#E0E0E0" stroke-width="1"/>
      <g transform="translate(847.0,323) scale(1.125)">
      <rect width="32" height="32" class="icon-bg" fill="#008272" opacity="0.12"/>
      <path d="M16 2C8.27 2 2 8.27 2 16s6.27 14 14 14 14-6.27 14-14S23.73 2 16 2zm1 21h-2v-2h2v2zm0-4h-2V9h2v10z" fill="#008272"/>
    </g>
      <text x="865.0" y="371" class="node-label">Dev Sandbox</text>
      <text x="865.0" y="385" class="node-sublabel">Profile: sandbox</text>
    </g>
  <!-- Azure Policy -->
    <g filter="url(#shadow)">
      <rect x="50" y="480" width="120" height="75"
            rx="8" fill="white" stroke="#E0E0E0" stroke-width="1"/>
      <g transform="translate(92.0,488) scale(1.125)">
      <rect width="32" height="32" class="icon-bg" fill="#008272" opacity="0.12"/>
      <path d="M16 2L4 7v9c0 7.46 5.12 14.43 12 16 6.88-1.57 12-8.54 12-16V7L16 2zm0 4l8 3.4v6.6c0 5.34-3.42 10.33-8 11.8-4.58-1.47-8-6.46-8-11.8V9.4L16 6z" fill="#008272"/>
    </g>
      <text x="110.0" y="536" class="node-label">Azure Policy</text>
      <text x="110.0" y="550" class="node-sublabel">CAF baseline</text>
    </g>
  <!-- Defender for Cloud -->
    <g filter="url(#shadow)">
      <rect x="200" y="480" width="120" height="75"
            rx="8" fill="white" stroke="#E0E0E0" stroke-width="1"/>
      <g transform="translate(242.0,488) scale(1.125)">
      <rect width="32" height="32" class="icon-bg" fill="#5C2D91" opacity="0.12"/>
      <path d="M16 2L4 7v9c0 7.46 5.12 14.43 12 16 6.88-1.57 12-8.54 12-16V7L16 2zm-2 20l-5-5 1.41-1.41L14 19.17l7.59-7.59L23 13l-9 9z" fill="#5C2D91"/>
    </g>
      <text x="260.0" y="536" class="node-label">Defender for Cloud</text>
      <text x="260.0" y="550" class="node-sublabel">All plans</text>
    </g>
  <!-- Azure Monitor -->
    <g filter="url(#shadow)">
      <rect x="350" y="480" width="120" height="75"
            rx="8" fill="white" stroke="#E0E0E0" stroke-width="1"/>
      <g transform="translate(392.0,488) scale(1.125)">
      <rect width="32" height="32" class="icon-bg" fill="#FF8C00" opacity="0.12"/>
      <path d="M4 4h24v18H4V4zm2 2v14h20V6H6zm4 10h2v2h-2zm4-4h2v6h-2zm4-2h2v8h-2zm4-4h2v12h-2z" fill="#FF8C00"/>
    </g>
      <text x="410.0" y="536" class="node-label">Azure Monitor</text>
      <text x="410.0" y="550" class="node-sublabel">Central LAW</text>
    </g>
  <!-- Cost Management -->
    <g filter="url(#shadow)">
      <rect x="500" y="480" width="120" height="75"
            rx="8" fill="white" stroke="#E0E0E0" stroke-width="1"/>
      <g transform="translate(542.0,488) scale(1.125)">
      <rect width="32" height="32" class="icon-bg" fill="#008272" opacity="0.12"/>
      <path d="M16 2C8.27 2 2 8.27 2 16s6.27 14 14 14 14-6.27 14-14S23.73 2 16 2zm1 21h-2v-2h2v2zm0-4h-2V9h2v10z" fill="#008272"/>
    </g>
      <text x="560.0" y="536" class="node-label">Cost Management</text>
      <text x="560.0" y="550" class="node-sublabel">Per-LZ budgets</text>
    </g>
  <!-- Key Vault -->
    <g filter="url(#shadow)">
      <rect x="650" y="480" width="120" height="75"
            rx="8" fill="white" stroke="#E0E0E0" stroke-width="1"/>
      <g transform="translate(692.0,488) scale(1.125)">
      <rect width="32" height="32" class="icon-bg" fill="#5C2D91" opacity="0.12"/>
      <path d="M16 2a6 6 0 00-6 6c0 2.22 1.21 4.16 3 5.2V28h6V13.2c1.79-1.04 3-2.98 3-5.2a6 6 0 00-6-6zm0 8a2 2 0 110-4 2 2 0 010 4z" fill="#5C2D91"/>
    </g>
      <text x="710.0" y="536" class="node-label">Key Vault</text>
      <text x="710.0" y="550" class="node-sublabel">Per-LZ vaults</text>
    </g>
    <path d="M120.0,235 C120.0,190.0 280.0,190.0 280.0,145"
          stroke="#0078D4" stroke-width="1.2" fill="none" class="edge-dashed"
          marker-end="url(#arrow)"/>
    <text x="200.0" y="184.0" class="edge-label">depends</text>    <path d="M280.0,235 C280.0,190.0 440.0,190.0 440.0,145"
          stroke="#0078D4" stroke-width="1.2" fill="none" class="edge-dashed"
          marker-end="url(#arrow)"/>
    <text x="360.0" y="184.0" class="edge-label">depends</text>    <path d="M440.0,235 C440.0,190.0 600.0,190.0 600.0,145"
          stroke="#0078D4" stroke-width="1.2" fill="none" class="edge-dashed"
          marker-end="url(#arrow)"/>
    <text x="520.0" y="184.0" class="edge-label">depends</text></svg>